<mxfile host="Electron" modified="2024-09-01T13:45:42.645Z" agent="Mozilla/5.0 (Windows NT 10.0; Win64; x64) AppleWebKit/537.36 (KHTML, like Gecko) draw.io/24.4.8 Chrome/124.0.6367.207 Electron/30.0.6 Safari/537.36" etag="OdOUVbi1BW4AuV_dQoO8" version="24.4.8" type="device">
  <diagram name="Page-1" id="O6bcs-abmlyXL-6Mab-k">
    <mxGraphModel dx="1420" dy="870" grid="1" gridSize="10" guides="1" tooltips="1" connect="1" arrows="1" fold="1" page="1" pageScale="1" pageWidth="2336" pageHeight="1654" math="0" shadow="0">
      <root>
        <mxCell id="0" />
        <mxCell id="1" parent="0" />
        <mxCell id="UJFcI3xOjRwTeI_TndEH-33" style="edgeStyle=orthogonalEdgeStyle;rounded=0;orthogonalLoop=1;jettySize=auto;html=1;entryX=0.5;entryY=0;entryDx=0;entryDy=0;exitX=0;exitY=0.5;exitDx=0;exitDy=0;" parent="1" source="SXCyoP0QDoGg-8MIkyOE-16" target="SXCyoP0QDoGg-8MIkyOE-84" edge="1">
          <mxGeometry relative="1" as="geometry">
            <mxPoint x="400.7999999999997" y="1129.8400000000001" as="sourcePoint" />
            <Array as="points">
              <mxPoint x="220.05999999999995" y="710" />
              <mxPoint x="220.05999999999995" y="460" />
              <mxPoint x="340.05999999999995" y="460" />
            </Array>
          </mxGeometry>
        </mxCell>
        <mxCell id="SXCyoP0QDoGg-8MIkyOE-23" style="edgeStyle=orthogonalEdgeStyle;rounded=0;orthogonalLoop=1;jettySize=auto;html=1;fontFamily=Consolas;" parent="1" source="SXCyoP0QDoGg-8MIkyOE-1" target="SXCyoP0QDoGg-8MIkyOE-22" edge="1">
          <mxGeometry relative="1" as="geometry" />
        </mxCell>
        <mxCell id="SXCyoP0QDoGg-8MIkyOE-1" value="&lt;font style=&quot;font-size: 19px;&quot;&gt;Boot&lt;/font&gt;" style="rounded=1;whiteSpace=wrap;html=1;fillColor=#000000;fontFamily=Consolas;glass=0;fillStyle=hatch;labelBackgroundColor=default;labelBorderColor=none;fontColor=default;fontSize=19;" parent="1" vertex="1">
          <mxGeometry x="280" y="200" width="120" height="60" as="geometry" />
        </mxCell>
        <mxCell id="SXCyoP0QDoGg-8MIkyOE-37" style="edgeStyle=orthogonalEdgeStyle;rounded=0;orthogonalLoop=1;jettySize=auto;html=1;entryX=0.5;entryY=0;entryDx=0;entryDy=0;fontFamily=Consolas;" parent="1" source="SXCyoP0QDoGg-8MIkyOE-6" target="SXCyoP0QDoGg-8MIkyOE-84" edge="1">
          <mxGeometry relative="1" as="geometry">
            <Array as="points" />
          </mxGeometry>
        </mxCell>
        <mxCell id="SXCyoP0QDoGg-8MIkyOE-6" value="Schrack logo" style="rounded=1;whiteSpace=wrap;html=1;fontFamily=Consolas;strokeColor=default;align=center;verticalAlign=middle;fontSize=19;fontColor=default;fillColor=none;fillStyle=auto;gradientColor=none;gradientDirection=south;" parent="1" vertex="1">
          <mxGeometry x="280" y="360" width="120" height="60" as="geometry" />
        </mxCell>
        <mxCell id="UJFcI3xOjRwTeI_TndEH-34" style="edgeStyle=orthogonalEdgeStyle;rounded=0;orthogonalLoop=1;jettySize=auto;html=1;entryX=0.5;entryY=0;entryDx=0;entryDy=0;" parent="1" source="SXCyoP0QDoGg-8MIkyOE-9" target="UJFcI3xOjRwTeI_TndEH-24" edge="1">
          <mxGeometry relative="1" as="geometry">
            <Array as="points">
              <mxPoint x="1180.06" y="1070" />
              <mxPoint x="1180.06" y="1070" />
            </Array>
          </mxGeometry>
        </mxCell>
        <mxCell id="UJFcI3xOjRwTeI_TndEH-57" style="edgeStyle=orthogonalEdgeStyle;rounded=0;orthogonalLoop=1;jettySize=auto;html=1;entryX=0;entryY=0.5;entryDx=0;entryDy=0;" parent="1" source="SXCyoP0QDoGg-8MIkyOE-9" target="SXCyoP0QDoGg-8MIkyOE-87" edge="1">
          <mxGeometry relative="1" as="geometry">
            <Array as="points">
              <mxPoint x="1060.06" y="1030" />
              <mxPoint x="1060.06" y="870" />
            </Array>
          </mxGeometry>
        </mxCell>
        <mxCell id="UJFcI3xOjRwTeI_TndEH-61" style="edgeStyle=orthogonalEdgeStyle;rounded=0;orthogonalLoop=1;jettySize=auto;html=1;entryX=0.5;entryY=0;entryDx=0;entryDy=0;" parent="1" source="SXCyoP0QDoGg-8MIkyOE-9" target="UJFcI3xOjRwTeI_TndEH-60" edge="1">
          <mxGeometry relative="1" as="geometry">
            <Array as="points">
              <mxPoint x="1060" y="1030" />
              <mxPoint x="1060" y="1220" />
              <mxPoint x="660" y="1220" />
              <mxPoint x="660" y="1000" />
              <mxPoint x="340" y="1000" />
            </Array>
          </mxGeometry>
        </mxCell>
        <mxCell id="UJFcI3xOjRwTeI_TndEH-65" style="edgeStyle=orthogonalEdgeStyle;rounded=0;orthogonalLoop=1;jettySize=auto;html=1;" parent="1" source="SXCyoP0QDoGg-8MIkyOE-9" edge="1">
          <mxGeometry relative="1" as="geometry">
            <mxPoint x="1060.06" y="1080" as="targetPoint" />
          </mxGeometry>
        </mxCell>
        <mxCell id="UJFcI3xOjRwTeI_TndEH-66" style="edgeStyle=orthogonalEdgeStyle;rounded=0;orthogonalLoop=1;jettySize=auto;html=1;" parent="1" source="SXCyoP0QDoGg-8MIkyOE-9" edge="1">
          <mxGeometry relative="1" as="geometry">
            <mxPoint x="1060.06" y="980" as="targetPoint" />
          </mxGeometry>
        </mxCell>
        <mxCell id="UJFcI3xOjRwTeI_TndEH-67" style="edgeStyle=orthogonalEdgeStyle;rounded=0;orthogonalLoop=1;jettySize=auto;html=1;" parent="1" source="SXCyoP0QDoGg-8MIkyOE-9" edge="1">
          <mxGeometry relative="1" as="geometry">
            <mxPoint x="1020.06" y="1220" as="targetPoint" />
            <Array as="points">
              <mxPoint x="1060.06" y="1030" />
              <mxPoint x="1060.06" y="1220" />
            </Array>
          </mxGeometry>
        </mxCell>
        <mxCell id="SXCyoP0QDoGg-8MIkyOE-9" value="&lt;p style=&quot;line-height: 100%; font-size: 19px;&quot;&gt;(Predefined countdown)&lt;/p&gt;" style="rounded=1;whiteSpace=wrap;html=1;fontFamily=Consolas;fillStyle=auto;strokeColor=default;align=center;verticalAlign=middle;fontSize=19;fontColor=default;fillColor=none;gradientColor=none;gradientDirection=south;" parent="1" vertex="1">
          <mxGeometry x="1120.06" y="1000" width="120" height="60" as="geometry" />
        </mxCell>
        <mxCell id="UJFcI3xOjRwTeI_TndEH-79" style="edgeStyle=orthogonalEdgeStyle;rounded=0;orthogonalLoop=1;jettySize=auto;html=1;" parent="1" source="SXCyoP0QDoGg-8MIkyOE-16" edge="1">
          <mxGeometry relative="1" as="geometry">
            <mxPoint x="320" y="460" as="targetPoint" />
            <Array as="points">
              <mxPoint x="220.05999999999995" y="710" />
              <mxPoint x="220.05999999999995" y="460" />
            </Array>
          </mxGeometry>
        </mxCell>
        <mxCell id="SXCyoP0QDoGg-8MIkyOE-16" value="(Text cycle)" style="rounded=1;whiteSpace=wrap;html=1;fontFamily=Consolas;strokeColor=default;align=center;verticalAlign=middle;fontSize=19;fontColor=default;fillColor=none;fillStyle=auto;gradientColor=none;gradientDirection=south;" parent="1" vertex="1">
          <mxGeometry x="280.0899999999999" y="680" width="120" height="60" as="geometry" />
        </mxCell>
        <mxCell id="UJFcI3xOjRwTeI_TndEH-2" style="edgeStyle=orthogonalEdgeStyle;rounded=0;orthogonalLoop=1;jettySize=auto;html=1;entryX=0;entryY=0.5;entryDx=0;entryDy=0;" parent="1" source="SXCyoP0QDoGg-8MIkyOE-17" target="SXCyoP0QDoGg-8MIkyOE-19" edge="1">
          <mxGeometry relative="1" as="geometry" />
        </mxCell>
        <mxCell id="SXCyoP0QDoGg-8MIkyOE-17" value="&lt;div style=&quot;font-size: 19px;&quot;&gt;Schrack Technic&lt;/div&gt;" style="rounded=1;whiteSpace=wrap;html=1;fontFamily=Consolas;strokeColor=default;align=center;verticalAlign=middle;fontSize=19;fontColor=default;fillColor=none;fillStyle=auto;gradientColor=none;gradientDirection=south;" parent="1" vertex="1">
          <mxGeometry x="280" y="800" width="120" height="60" as="geometry" />
        </mxCell>
        <mxCell id="UJFcI3xOjRwTeI_TndEH-3" style="edgeStyle=orthogonalEdgeStyle;rounded=0;orthogonalLoop=1;jettySize=auto;html=1;entryX=0;entryY=0.5;entryDx=0;entryDy=0;" parent="1" source="SXCyoP0QDoGg-8MIkyOE-19" target="SXCyoP0QDoGg-8MIkyOE-20" edge="1">
          <mxGeometry relative="1" as="geometry" />
        </mxCell>
        <mxCell id="SXCyoP0QDoGg-8MIkyOE-19" value="Get Ready, Get Schrack" style="rounded=1;whiteSpace=wrap;html=1;fontFamily=Consolas;strokeColor=default;align=center;verticalAlign=middle;fontSize=19;fontColor=default;fillColor=none;fillStyle=auto;gradientColor=none;gradientDirection=south;" parent="1" vertex="1">
          <mxGeometry x="440.05999999999995" y="800" width="120" height="60" as="geometry" />
        </mxCell>
        <mxCell id="UJFcI3xOjRwTeI_TndEH-4" style="edgeStyle=orthogonalEdgeStyle;rounded=0;orthogonalLoop=1;jettySize=auto;html=1;entryX=0;entryY=0.5;entryDx=0;entryDy=0;" parent="1" source="SXCyoP0QDoGg-8MIkyOE-20" target="SXCyoP0QDoGg-8MIkyOE-21" edge="1">
          <mxGeometry relative="1" as="geometry">
            <mxPoint x="360" y="1040" as="targetPoint" />
          </mxGeometry>
        </mxCell>
        <mxCell id="SXCyoP0QDoGg-8MIkyOE-20" value="&lt;div style=&quot;font-size: 19px;&quot;&gt;&lt;span style=&quot;background-color: initial; font-size: 19px;&quot;&gt;Schrack for Students&lt;/span&gt;&lt;/div&gt;" style="rounded=1;whiteSpace=wrap;html=1;fontFamily=Consolas;strokeColor=default;align=center;verticalAlign=middle;fontSize=19;fontColor=default;fillColor=none;fillStyle=auto;gradientColor=none;gradientDirection=south;" parent="1" vertex="1">
          <mxGeometry x="600.06" y="800" width="120" height="60" as="geometry" />
        </mxCell>
        <mxCell id="UJFcI3xOjRwTeI_TndEH-6" style="edgeStyle=orthogonalEdgeStyle;rounded=0;orthogonalLoop=1;jettySize=auto;html=1;entryX=0;entryY=0.5;entryDx=0;entryDy=0;" parent="1" source="SXCyoP0QDoGg-8MIkyOE-21" target="UJFcI3xOjRwTeI_TndEH-5" edge="1">
          <mxGeometry relative="1" as="geometry">
            <mxPoint x="920.0599999999997" y="830" as="targetPoint" />
          </mxGeometry>
        </mxCell>
        <mxCell id="SXCyoP0QDoGg-8MIkyOE-21" value="&lt;div style=&quot;font-size: 19px;&quot;&gt;&lt;span style=&quot;background-color: initial; font-size: 19px;&quot;&gt;ARODEM&lt;/span&gt;&lt;br style=&quot;font-size: 19px;&quot;&gt;&lt;/div&gt;" style="rounded=1;whiteSpace=wrap;html=1;fontFamily=Consolas;strokeColor=default;align=center;verticalAlign=middle;fontSize=19;fontColor=default;fillColor=none;fillStyle=auto;gradientColor=none;gradientDirection=south;" parent="1" vertex="1">
          <mxGeometry x="760.06" y="800" width="120" height="60" as="geometry" />
        </mxCell>
        <mxCell id="SXCyoP0QDoGg-8MIkyOE-24" style="edgeStyle=orthogonalEdgeStyle;rounded=0;orthogonalLoop=1;jettySize=auto;html=1;entryX=0.5;entryY=0;entryDx=0;entryDy=0;fontFamily=Consolas;" parent="1" source="SXCyoP0QDoGg-8MIkyOE-22" target="SXCyoP0QDoGg-8MIkyOE-6" edge="1">
          <mxGeometry relative="1" as="geometry" />
        </mxCell>
        <mxCell id="SXCyoP0QDoGg-8MIkyOE-22" value="Boot-Up anim" style="rounded=1;whiteSpace=wrap;html=1;fontFamily=Consolas;fillColor=none;fillStyle=auto;strokeColor=default;align=center;verticalAlign=middle;fontSize=19;fontColor=default;gradientColor=none;gradientDirection=south;" parent="1" vertex="1">
          <mxGeometry x="280" y="280" width="120" height="60" as="geometry" />
        </mxCell>
        <mxCell id="SXCyoP0QDoGg-8MIkyOE-85" style="edgeStyle=orthogonalEdgeStyle;rounded=0;orthogonalLoop=1;jettySize=auto;html=1;entryX=0.5;entryY=0;entryDx=0;entryDy=0;fontFamily=Consolas;" parent="1" source="SXCyoP0QDoGg-8MIkyOE-84" target="SXCyoP0QDoGg-8MIkyOE-16" edge="1">
          <mxGeometry relative="1" as="geometry">
            <mxPoint x="1100.06" y="760" as="targetPoint" />
            <Array as="points">
              <mxPoint x="340.05999999999995" y="630" />
              <mxPoint x="340.05999999999995" y="630" />
            </Array>
          </mxGeometry>
        </mxCell>
        <mxCell id="SXCyoP0QDoGg-8MIkyOE-90" style="edgeStyle=orthogonalEdgeStyle;rounded=0;orthogonalLoop=1;jettySize=auto;html=1;entryX=0.5;entryY=0;entryDx=0;entryDy=0;fontFamily=Consolas;" parent="1" source="SXCyoP0QDoGg-8MIkyOE-84" target="SXCyoP0QDoGg-8MIkyOE-87" edge="1">
          <mxGeometry relative="1" as="geometry">
            <Array as="points">
              <mxPoint x="340.05999999999995" y="620" />
              <mxPoint x="1180.06" y="620" />
            </Array>
          </mxGeometry>
        </mxCell>
        <mxCell id="UJFcI3xOjRwTeI_TndEH-76" style="edgeStyle=orthogonalEdgeStyle;rounded=0;orthogonalLoop=1;jettySize=auto;html=1;" parent="1" source="SXCyoP0QDoGg-8MIkyOE-84" edge="1">
          <mxGeometry relative="1" as="geometry">
            <mxPoint x="380.0599999999997" y="620" as="targetPoint" />
            <Array as="points">
              <mxPoint x="340.05999999999995" y="620" />
            </Array>
          </mxGeometry>
        </mxCell>
        <mxCell id="SXCyoP0QDoGg-8MIkyOE-84" value="Menu" style="rounded=1;whiteSpace=wrap;html=1;fontFamily=Consolas;strokeColor=default;align=center;verticalAlign=middle;fontSize=19;fontColor=default;fillColor=none;fillStyle=auto;gradientColor=none;gradientDirection=south;" parent="1" vertex="1">
          <mxGeometry x="280" y="520" width="120" height="60" as="geometry" />
        </mxCell>
        <mxCell id="UJFcI3xOjRwTeI_TndEH-15" style="edgeStyle=orthogonalEdgeStyle;rounded=0;orthogonalLoop=1;jettySize=auto;html=1;entryX=0.5;entryY=0;entryDx=0;entryDy=0;" parent="1" source="SXCyoP0QDoGg-8MIkyOE-87" target="SXCyoP0QDoGg-8MIkyOE-84" edge="1">
          <mxGeometry relative="1" as="geometry">
            <Array as="points">
              <mxPoint x="1300.06" y="870" />
              <mxPoint x="1300.06" y="460" />
              <mxPoint x="340.05999999999995" y="460" />
            </Array>
          </mxGeometry>
        </mxCell>
        <mxCell id="UJFcI3xOjRwTeI_TndEH-21" style="edgeStyle=orthogonalEdgeStyle;rounded=0;orthogonalLoop=1;jettySize=auto;html=1;entryX=0.5;entryY=0;entryDx=0;entryDy=0;" parent="1" source="SXCyoP0QDoGg-8MIkyOE-87" target="SXCyoP0QDoGg-8MIkyOE-9" edge="1">
          <mxGeometry relative="1" as="geometry" />
        </mxCell>
        <mxCell id="UJFcI3xOjRwTeI_TndEH-80" style="edgeStyle=orthogonalEdgeStyle;rounded=0;orthogonalLoop=1;jettySize=auto;html=1;" parent="1" source="SXCyoP0QDoGg-8MIkyOE-87" edge="1">
          <mxGeometry relative="1" as="geometry">
            <mxPoint x="360" y="460" as="targetPoint" />
            <Array as="points">
              <mxPoint x="1300.06" y="870" />
              <mxPoint x="1300.06" y="460" />
            </Array>
          </mxGeometry>
        </mxCell>
        <mxCell id="SXCyoP0QDoGg-8MIkyOE-87" value="Time" style="rounded=1;whiteSpace=wrap;html=1;fontFamily=Consolas;fillStyle=auto;strokeColor=default;align=center;verticalAlign=middle;fontSize=19;fontColor=default;fillColor=none;gradientColor=none;gradientDirection=south;" parent="1" vertex="1">
          <mxGeometry x="1120.06" y="840" width="120" height="60" as="geometry" />
        </mxCell>
        <mxCell id="SXCyoP0QDoGg-8MIkyOE-130" value="&lt;h1 style=&quot;font-size: 30px;&quot;&gt;&lt;font style=&quot;font-size: 30px;&quot;&gt;Custom countdown&lt;/font&gt;&lt;/h1&gt;&lt;span style=&quot;text-align: center; font-size: 20px;&quot;&gt;&lt;font style=&quot;font-size: 20px;&quot;&gt;Set a custom time down to seconds. Max is 99h 59min 59s.&lt;br&gt;&lt;/font&gt;&lt;/span&gt;&lt;div style=&quot;font-size: 20px;&quot;&gt;&lt;span style=&quot;text-align: center;&quot;&gt;&lt;font style=&quot;font-size: 20px;&quot;&gt;Yellow button moves the cursor left.&lt;br&gt;Blue button adds 1 to the selected digit.&lt;br&gt;Green button starts counting.&lt;/font&gt;&lt;/span&gt;&lt;/div&gt;" style="text;html=1;strokeColor=none;fillColor=none;spacing=5;spacingTop=-20;whiteSpace=wrap;overflow=hidden;rounded=0;fontFamily=Consolas;" parent="1" vertex="1">
          <mxGeometry x="1700.06" y="1080" width="359.94" height="240" as="geometry" />
        </mxCell>
        <mxCell id="UJFcI3xOjRwTeI_TndEH-1" style="edgeStyle=orthogonalEdgeStyle;rounded=0;orthogonalLoop=1;jettySize=auto;html=1;entryX=0.5;entryY=0;entryDx=0;entryDy=0;exitX=0.5;exitY=1;exitDx=0;exitDy=0;" parent="1" source="SXCyoP0QDoGg-8MIkyOE-16" target="SXCyoP0QDoGg-8MIkyOE-17" edge="1">
          <mxGeometry relative="1" as="geometry">
            <mxPoint x="420.0899999999999" y="710" as="sourcePoint" />
            <mxPoint x="520.0899999999999" y="800" as="targetPoint" />
            <Array as="points" />
          </mxGeometry>
        </mxCell>
        <mxCell id="UJFcI3xOjRwTeI_TndEH-7" style="edgeStyle=orthogonalEdgeStyle;rounded=0;orthogonalLoop=1;jettySize=auto;html=1;entryX=0.5;entryY=0;entryDx=0;entryDy=0;exitX=0.5;exitY=0;exitDx=0;exitDy=0;" parent="1" source="UJFcI3xOjRwTeI_TndEH-5" target="SXCyoP0QDoGg-8MIkyOE-17" edge="1">
          <mxGeometry relative="1" as="geometry">
            <mxPoint x="980.0599999999997" y="800" as="sourcePoint" />
            <Array as="points">
              <mxPoint x="980.06" y="780" />
              <mxPoint x="340.05999999999995" y="780" />
            </Array>
          </mxGeometry>
        </mxCell>
        <mxCell id="UJFcI3xOjRwTeI_TndEH-5" value="&lt;div style=&quot;&quot;&gt;&lt;span style=&quot;background-color: initial;&quot;&gt;&lt;font style=&quot;font-size: 16px;&quot;&gt;MESIT stredni skola&lt;/font&gt;&lt;/span&gt;&lt;br style=&quot;font-size: 19px;&quot;&gt;&lt;/div&gt;" style="rounded=1;whiteSpace=wrap;html=1;fontFamily=Consolas;strokeColor=default;align=center;verticalAlign=middle;fontSize=19;fontColor=default;fillColor=none;fillStyle=auto;gradientColor=none;gradientDirection=south;" parent="1" vertex="1">
          <mxGeometry x="920.0899999999999" y="800" width="120" height="60" as="geometry" />
        </mxCell>
        <mxCell id="UJFcI3xOjRwTeI_TndEH-8" value="&lt;h1 style=&quot;margin-top: 0px;&quot;&gt;&lt;font style=&quot;font-size: 30px;&quot;&gt;Text cycle&lt;/font&gt;&lt;/h1&gt;&lt;p style=&quot;font-size: 20px;&quot;&gt;Cycles a text for ~30secs.&amp;nbsp;&lt;span style=&quot;background-color: initial;&quot;&gt;Red button escapes.&lt;/span&gt;&lt;/p&gt;" style="text;html=1;whiteSpace=wrap;overflow=hidden;rounded=0;" parent="1" vertex="1">
          <mxGeometry x="410" y="665" width="430" height="90" as="geometry" />
        </mxCell>
        <mxCell id="UJFcI3xOjRwTeI_TndEH-9" value="&lt;div style=&quot;font-size: 17px;&quot;&gt;Red button&lt;/div&gt;" style="text;html=1;strokeColor=none;fillColor=none;align=center;verticalAlign=bottom;whiteSpace=wrap;rounded=0;fontFamily=Consolas;fontSize=17;fontColor=default;" parent="1" vertex="1">
          <mxGeometry x="219.9999999999999" y="680" width="60" height="30" as="geometry" />
        </mxCell>
        <mxCell id="UJFcI3xOjRwTeI_TndEH-10" value="&lt;div&gt;Red button&lt;/div&gt;" style="text;html=1;strokeColor=none;fillColor=none;align=center;verticalAlign=bottom;whiteSpace=wrap;rounded=0;fontFamily=Consolas;fontSize=17;fontColor=default;" parent="1" vertex="1">
          <mxGeometry x="1240.06" y="840" width="60" height="30" as="geometry" />
        </mxCell>
        <mxCell id="UJFcI3xOjRwTeI_TndEH-11" value="&lt;div style=&quot;font-size: 18px;&quot;&gt;Green button&lt;/div&gt;" style="text;html=1;strokeColor=none;fillColor=none;align=center;verticalAlign=bottom;whiteSpace=wrap;rounded=0;fontFamily=Consolas;fontSize=17;horizontal=1;fontColor=default;" parent="1" vertex="1">
          <mxGeometry x="340.06" y="480" width="59.94" height="30" as="geometry" />
        </mxCell>
        <mxCell id="UJFcI3xOjRwTeI_TndEH-13" value="&lt;div&gt;Green button&lt;/div&gt;" style="text;html=1;strokeColor=none;fillColor=none;align=center;verticalAlign=bottom;whiteSpace=wrap;rounded=0;fontFamily=Consolas;fontSize=17;fontColor=default;" parent="1" vertex="1">
          <mxGeometry x="340.0899999999999" y="640" width="60" height="30" as="geometry" />
        </mxCell>
        <mxCell id="UJFcI3xOjRwTeI_TndEH-14" value="&lt;div&gt;Yellow button&lt;/div&gt;" style="text;html=1;strokeColor=none;fillColor=none;align=center;verticalAlign=bottom;whiteSpace=wrap;rounded=0;fontFamily=Consolas;fontSize=17;fontColor=default;" parent="1" vertex="1">
          <mxGeometry x="380.05999999999995" y="590" width="60" height="30" as="geometry" />
        </mxCell>
        <mxCell id="UJFcI3xOjRwTeI_TndEH-17" value="&lt;div&gt;Green button&lt;/div&gt;" style="text;html=1;strokeColor=none;fillColor=none;align=center;verticalAlign=bottom;whiteSpace=wrap;rounded=0;fontFamily=Consolas;fontSize=17;fontColor=default;" parent="1" vertex="1">
          <mxGeometry x="1180.06" y="960" width="60" height="30" as="geometry" />
        </mxCell>
        <mxCell id="UJFcI3xOjRwTeI_TndEH-63" style="edgeStyle=orthogonalEdgeStyle;rounded=0;orthogonalLoop=1;jettySize=auto;html=1;entryX=0.5;entryY=0;entryDx=0;entryDy=0;" parent="1" source="UJFcI3xOjRwTeI_TndEH-18" target="UJFcI3xOjRwTeI_TndEH-60" edge="1">
          <mxGeometry relative="1" as="geometry">
            <Array as="points">
              <mxPoint x="1700" y="1030" />
              <mxPoint x="1700" y="1220" />
              <mxPoint x="660" y="1220" />
              <mxPoint x="660" y="1000" />
              <mxPoint x="340" y="1000" />
            </Array>
          </mxGeometry>
        </mxCell>
        <mxCell id="UJFcI3xOjRwTeI_TndEH-18" value="(Custom countdown)" style="rounded=1;whiteSpace=wrap;html=1;fontFamily=Consolas;fillStyle=auto;strokeColor=default;align=center;verticalAlign=middle;fontSize=19;fontColor=default;fillColor=none;gradientColor=none;gradientDirection=south;" parent="1" vertex="1">
          <mxGeometry x="1760.06" y="1000" width="120" height="60" as="geometry" />
        </mxCell>
        <mxCell id="UJFcI3xOjRwTeI_TndEH-19" value="&lt;div&gt;Yellow button&lt;/div&gt;" style="text;html=1;strokeColor=none;fillColor=none;align=center;verticalAlign=bottom;whiteSpace=wrap;rounded=0;fontFamily=Consolas;fontSize=17;fontColor=default;" parent="1" vertex="1">
          <mxGeometry x="1820.06" y="960" width="60" height="30" as="geometry" />
        </mxCell>
        <mxCell id="UJFcI3xOjRwTeI_TndEH-22" style="edgeStyle=orthogonalEdgeStyle;rounded=0;orthogonalLoop=1;jettySize=auto;html=1;entryX=0.5;entryY=0;entryDx=0;entryDy=0;" parent="1" source="SXCyoP0QDoGg-8MIkyOE-87" target="UJFcI3xOjRwTeI_TndEH-18" edge="1">
          <mxGeometry relative="1" as="geometry">
            <Array as="points">
              <mxPoint x="1180" y="940" />
              <mxPoint x="1820" y="940" />
            </Array>
          </mxGeometry>
        </mxCell>
        <mxCell id="UJFcI3xOjRwTeI_TndEH-48" style="edgeStyle=orthogonalEdgeStyle;rounded=0;orthogonalLoop=1;jettySize=auto;html=1;entryX=0;entryY=0.5;entryDx=0;entryDy=0;" parent="1" source="UJFcI3xOjRwTeI_TndEH-24" target="UJFcI3xOjRwTeI_TndEH-25" edge="1">
          <mxGeometry relative="1" as="geometry" />
        </mxCell>
        <mxCell id="UJFcI3xOjRwTeI_TndEH-24" value="20min." style="rounded=1;whiteSpace=wrap;html=1;fontFamily=Consolas;fillStyle=auto;strokeColor=default;align=center;verticalAlign=middle;fontSize=19;fontColor=default;fillColor=none;gradientColor=none;gradientDirection=south;" parent="1" vertex="1">
          <mxGeometry x="1120.06" y="1120" width="120" height="60" as="geometry" />
        </mxCell>
        <mxCell id="UJFcI3xOjRwTeI_TndEH-49" style="edgeStyle=orthogonalEdgeStyle;rounded=0;orthogonalLoop=1;jettySize=auto;html=1;entryX=0;entryY=0.5;entryDx=0;entryDy=0;" parent="1" source="UJFcI3xOjRwTeI_TndEH-25" target="UJFcI3xOjRwTeI_TndEH-26" edge="1">
          <mxGeometry relative="1" as="geometry" />
        </mxCell>
        <mxCell id="UJFcI3xOjRwTeI_TndEH-25" value="30min." style="rounded=1;whiteSpace=wrap;html=1;fontFamily=Consolas;fillStyle=auto;strokeColor=default;align=center;verticalAlign=middle;fontSize=19;fontColor=default;fillColor=none;gradientColor=none;gradientDirection=south;" parent="1" vertex="1">
          <mxGeometry x="1320.06" y="1120" width="120" height="60" as="geometry" />
        </mxCell>
        <mxCell id="UJFcI3xOjRwTeI_TndEH-47" style="edgeStyle=orthogonalEdgeStyle;rounded=0;orthogonalLoop=1;jettySize=auto;html=1;entryX=0.5;entryY=0;entryDx=0;entryDy=0;exitX=0.5;exitY=0;exitDx=0;exitDy=0;" parent="1" source="UJFcI3xOjRwTeI_TndEH-26" target="UJFcI3xOjRwTeI_TndEH-24" edge="1">
          <mxGeometry relative="1" as="geometry">
            <Array as="points">
              <mxPoint x="1580.06" y="1100" />
              <mxPoint x="1180.06" y="1100" />
            </Array>
          </mxGeometry>
        </mxCell>
        <mxCell id="UJFcI3xOjRwTeI_TndEH-26" value="1h 30min." style="rounded=1;whiteSpace=wrap;html=1;fontFamily=Consolas;fillStyle=auto;strokeColor=default;align=center;verticalAlign=middle;fontSize=19;fontColor=default;fillColor=none;gradientColor=none;gradientDirection=south;" parent="1" vertex="1">
          <mxGeometry x="1520.06" y="1120" width="120" height="60" as="geometry" />
        </mxCell>
        <mxCell id="UJFcI3xOjRwTeI_TndEH-50" value="&lt;div&gt;Yellow button&lt;/div&gt;" style="text;html=1;strokeColor=none;fillColor=none;align=center;verticalAlign=bottom;whiteSpace=wrap;rounded=0;fontFamily=Consolas;fontSize=17;fontColor=default;" parent="1" vertex="1">
          <mxGeometry x="1240.06" y="1120" width="60" height="30" as="geometry" />
        </mxCell>
        <mxCell id="UJFcI3xOjRwTeI_TndEH-51" value="&lt;div&gt;Yellow button&lt;/div&gt;" style="text;html=1;strokeColor=none;fillColor=none;align=center;verticalAlign=bottom;whiteSpace=wrap;rounded=0;fontFamily=Consolas;fontSize=17;fontColor=default;" parent="1" vertex="1">
          <mxGeometry x="1440.06" y="1120" width="60" height="30" as="geometry" />
        </mxCell>
        <mxCell id="UJFcI3xOjRwTeI_TndEH-52" value="&lt;div&gt;Yellow button&lt;/div&gt;" style="text;html=1;strokeColor=none;fillColor=none;align=center;verticalAlign=bottom;whiteSpace=wrap;rounded=0;fontFamily=Consolas;fontSize=17;fontColor=default;" parent="1" vertex="1">
          <mxGeometry x="1580.06" y="1090" width="60" height="30" as="geometry" />
        </mxCell>
        <mxCell id="UJFcI3xOjRwTeI_TndEH-55" value="&lt;div&gt;Red button&lt;/div&gt;" style="text;html=1;strokeColor=none;fillColor=none;align=center;verticalAlign=bottom;whiteSpace=wrap;rounded=0;fontFamily=Consolas;fontSize=17;fontColor=default;" parent="1" vertex="1">
          <mxGeometry x="1060.06" y="1000" width="60" height="30" as="geometry" />
        </mxCell>
        <mxCell id="UJFcI3xOjRwTeI_TndEH-58" value="&lt;h1&gt;&lt;font style=&quot;font-size: 30px;&quot;&gt;Predefined countdown&lt;/font&gt;&lt;/h1&gt;&lt;font style=&quot;font-size: 20px;&quot;&gt;&lt;span style=&quot;text-align: center;&quot;&gt;Select one ot the predefined countdowns using the yellow button.&amp;nbsp;&lt;/span&gt;&lt;span style=&quot;text-align: center; background-color: initial;&quot;&gt;Green button starts counting.&lt;/span&gt;&lt;/font&gt;" style="text;html=1;strokeColor=none;fillColor=none;spacing=5;spacingTop=-20;whiteSpace=wrap;overflow=hidden;rounded=0;fontFamily=Consolas;" parent="1" vertex="1">
          <mxGeometry x="1240.06" y="943" width="440" height="160" as="geometry" />
        </mxCell>
        <mxCell id="UJFcI3xOjRwTeI_TndEH-59" value="&lt;div&gt;Green button&lt;/div&gt;" style="text;html=1;strokeColor=none;fillColor=none;align=center;verticalAlign=bottom;whiteSpace=wrap;rounded=0;fontFamily=Consolas;fontSize=17;fontColor=default;" parent="1" vertex="1">
          <mxGeometry x="1700" y="1043" width="60" height="30" as="geometry" />
        </mxCell>
        <mxCell id="UJFcI3xOjRwTeI_TndEH-73" style="edgeStyle=orthogonalEdgeStyle;rounded=0;orthogonalLoop=1;jettySize=auto;html=1;entryX=0;entryY=0.5;entryDx=0;entryDy=0;" parent="1" source="UJFcI3xOjRwTeI_TndEH-60" target="UJFcI3xOjRwTeI_TndEH-68" edge="1">
          <mxGeometry relative="1" as="geometry" />
        </mxCell>
        <mxCell id="UJFcI3xOjRwTeI_TndEH-75" style="edgeStyle=orthogonalEdgeStyle;rounded=0;orthogonalLoop=1;jettySize=auto;html=1;" parent="1" source="UJFcI3xOjRwTeI_TndEH-60" target="UJFcI3xOjRwTeI_TndEH-74" edge="1">
          <mxGeometry relative="1" as="geometry">
            <Array as="points">
              <mxPoint x="340" y="1130" />
              <mxPoint x="340" y="1130" />
            </Array>
          </mxGeometry>
        </mxCell>
        <mxCell id="UJFcI3xOjRwTeI_TndEH-60" value="Countdown running" style="rounded=1;whiteSpace=wrap;html=1;fontFamily=Consolas;fillStyle=auto;strokeColor=default;align=center;verticalAlign=middle;fontSize=19;fontColor=default;fillColor=none;gradientColor=none;gradientDirection=south;" parent="1" vertex="1">
          <mxGeometry x="280.0899999999999" y="1043" width="120" height="60" as="geometry" />
        </mxCell>
        <mxCell id="UJFcI3xOjRwTeI_TndEH-62" value="&lt;div&gt;Green button&lt;/div&gt;" style="text;html=1;strokeColor=none;fillColor=none;align=center;verticalAlign=bottom;whiteSpace=wrap;rounded=0;fontFamily=Consolas;fontSize=17;fontColor=default;" parent="1" vertex="1">
          <mxGeometry x="1060.06" y="1043" width="60" height="30" as="geometry" />
        </mxCell>
        <mxCell id="UJFcI3xOjRwTeI_TndEH-69" style="edgeStyle=orthogonalEdgeStyle;rounded=0;orthogonalLoop=1;jettySize=auto;html=1;entryX=0.5;entryY=0;entryDx=0;entryDy=0;" parent="1" source="UJFcI3xOjRwTeI_TndEH-68" target="UJFcI3xOjRwTeI_TndEH-60" edge="1">
          <mxGeometry relative="1" as="geometry">
            <Array as="points">
              <mxPoint x="540" y="1020" />
              <mxPoint x="340" y="1020" />
            </Array>
          </mxGeometry>
        </mxCell>
        <mxCell id="UJFcI3xOjRwTeI_TndEH-68" value="Countdown paused" style="rounded=1;whiteSpace=wrap;html=1;fontFamily=Consolas;fillStyle=auto;strokeColor=default;align=center;verticalAlign=middle;fontSize=19;fontColor=default;fillColor=none;gradientColor=none;gradientDirection=south;" parent="1" vertex="1">
          <mxGeometry x="480.0899999999999" y="1043" width="120" height="60" as="geometry" />
        </mxCell>
        <mxCell id="UJFcI3xOjRwTeI_TndEH-70" value="&lt;div&gt;Green button&lt;/div&gt;" style="text;html=1;strokeColor=none;fillColor=none;align=center;verticalAlign=bottom;whiteSpace=wrap;rounded=0;fontFamily=Consolas;fontSize=17;fontColor=default;" parent="1" vertex="1">
          <mxGeometry x="540.0899999999999" y="1013" width="60" height="30" as="geometry" />
        </mxCell>
        <mxCell id="UJFcI3xOjRwTeI_TndEH-71" value="&lt;div&gt;Yellow button&lt;/div&gt;" style="text;html=1;strokeColor=none;fillColor=none;align=center;verticalAlign=bottom;whiteSpace=wrap;rounded=0;fontFamily=Consolas;fontSize=17;fontColor=default;" parent="1" vertex="1">
          <mxGeometry x="400" y="1043" width="60" height="30" as="geometry" />
        </mxCell>
        <mxCell id="UJFcI3xOjRwTeI_TndEH-77" style="edgeStyle=orthogonalEdgeStyle;rounded=0;orthogonalLoop=1;jettySize=auto;html=1;entryX=0;entryY=0.5;entryDx=0;entryDy=0;" parent="1" source="UJFcI3xOjRwTeI_TndEH-74" target="SXCyoP0QDoGg-8MIkyOE-87" edge="1">
          <mxGeometry relative="1" as="geometry">
            <Array as="points">
              <mxPoint x="220" y="1193" />
              <mxPoint x="220" y="960" />
              <mxPoint x="1060" y="960" />
              <mxPoint x="1060" y="870" />
            </Array>
          </mxGeometry>
        </mxCell>
        <mxCell id="KQ1zQFUVo21e3utHD2PA-2" style="edgeStyle=orthogonalEdgeStyle;rounded=0;orthogonalLoop=1;jettySize=auto;html=1;" parent="1" source="UJFcI3xOjRwTeI_TndEH-74" edge="1">
          <mxGeometry relative="1" as="geometry">
            <mxPoint x="1040" y="960" as="targetPoint" />
            <Array as="points">
              <mxPoint x="220" y="1193" />
              <mxPoint x="220" y="960" />
            </Array>
          </mxGeometry>
        </mxCell>
        <mxCell id="UJFcI3xOjRwTeI_TndEH-74" value="Countdown ended" style="rounded=1;whiteSpace=wrap;html=1;fontFamily=Consolas;fillStyle=auto;strokeColor=default;align=center;verticalAlign=middle;fontSize=19;fontColor=default;fillColor=none;gradientColor=none;gradientDirection=south;" parent="1" vertex="1">
          <mxGeometry x="280.0899999999999" y="1163" width="120" height="60" as="geometry" />
        </mxCell>
        <mxCell id="UJFcI3xOjRwTeI_TndEH-78" value="&lt;div&gt;Any button&lt;/div&gt;" style="text;html=1;strokeColor=none;fillColor=none;align=center;verticalAlign=bottom;whiteSpace=wrap;rounded=0;fontFamily=Consolas;fontSize=17;fontColor=default;" parent="1" vertex="1">
          <mxGeometry x="220.08999999999992" y="1163" width="60" height="30" as="geometry" />
        </mxCell>
        <mxCell id="KQ1zQFUVo21e3utHD2PA-1" value="&lt;font style=&quot;font-size: 80px;&quot;&gt;SCRACK Panel - Menus&lt;/font&gt;" style="text;html=1;align=center;verticalAlign=middle;whiteSpace=wrap;rounded=0;" parent="1" vertex="1">
          <mxGeometry x="576" y="40" width="1184" height="160" as="geometry" />
        </mxCell>
      </root>
    </mxGraphModel>
  </diagram>
</mxfile>
